<svg height="512pt" viewBox="0 -55 512.001 512" width="512pt" xmlns="http://www.w3.org/2000/svg"><path d="m196 180c-5.519531 0-10 4.480469-10 10s4.480469 10 10 10 10-4.480469 10-10-4.480469-10-10-10zm0 0"/><path d="m444.929688 262.929688-32.929688 32.929687-12.929688-12.929687c-3.90625-3.90625-10.234374-3.90625-14.140624 0-3.90625 3.902343-3.90625 10.234374 0 14.140624l20 20c1.953124 1.953126 4.511718 2.929688 7.070312 2.929688s5.117188-.976562 7.070312-2.929688l40-40c3.90625-3.902343 3.90625-10.234374 0-14.140624s-10.234374-3.90625-14.140624 0zm0 0"/><path d="m502 209c-10.855469 0-19.636719-8.488281-19.984375-19.324219-.175781-5.390625-4.597656-9.675781-9.996094-9.675781h-20.019531c0-33.328125 0-117.089844 0-150 0-16.542969-13.457031-30-30-30h-392c-16.542969 0-30 13.457031-30 30v260c0 16.542969 13.457031 30 30 30h306.457031c16.09375 57.050781 74.09375 81.136719 85.5 81.136719 2.867188 0 3.398438-.804688 7.019531-1.886719 12.871094-3.847656 47.058594-14.070312 69.972657-58.5625 8.539062-16.582031 13.050781-35.238281 13.050781-53.945312v-67.742188c0-5.523438-4.476562-10-10-10zm-482-129h412v40h-412zm10-60h392c5.515625 0 10 4.488281 10 10v30h-412v-30c0-5.511719 4.484375-10 10-10zm-10 270v-150h412v40h-60c-5.523438 0-10 4.476562-10 10 0 11.027344-8.972656 20-20 20-5.523438 0-10 4.476562-10 10v66.742188c0 4.484374.226562 8.914062.671875 13.257812h-302.671875c-5.515625 0-10-4.488281-10-10zm472-3.257812c0 15.539062-3.746094 31.027343-10.828125 44.789062-19.023437 36.925781-47.285156 45.375-57.925781 48.554688-.675782.203124-1.296875.390624-1.867188.566406-5.136718-1.683594-17.652344-6.6875-30.441406-16.21875-26.246094-19.554688-38.9375-46.25-38.9375-77.691406v-58.007813c14.035156-3.625 25.109375-14.699219 28.734375-28.734375h82.777344c3.847656 13.6875 14.714843 24.261719 28.488281 27.757812zm0 0"/><path d="m110 240h-46c-5.523438 0-10 4.476562-10 10s4.476562 10 10 10h46c5.523438 0 10-4.476562 10-10s-4.476562-10-10-10zm0 0"/><path d="m196 240h-46c-5.523438 0-10 4.476562-10 10s4.476562 10 10 10h46c5.523438 0 10-4.476562 10-10s-4.476562-10-10-10zm0 0"/><path d="m282 240h-46c-5.523438 0-10 4.476562-10 10s4.476562 10 10 10h46c5.523438 0 10-4.476562 10-10s-4.476562-10-10-10zm0 0"/><path d="m64 200h92c5.523438 0 10-4.476562 10-10s-4.476562-10-10-10h-92c-5.523438 0-10 4.476562-10 10s4.476562 10 10 10zm0 0"/></svg>