<svg height="511pt" viewBox="-96 0 511 511.99887" width="511pt" xmlns="http://www.w3.org/2000/svg"><path d="m110.5 366c-5.519531 0-10 4.480469-10 10s4.480469 10 10 10 10-4.480469 10-10-4.480469-10-10-10zm0 0"/><path d="m299.179688 201.289062-.738282-4.433593c-10.609375-63.617188-63.398437-111.847657-127.941406-116.488281v-43.15625l53.160156-17.722657c5.238282-1.746093 8.070313-7.410156 6.324219-12.648437-1.746094-5.238282-7.410156-8.070313-12.648437-6.324219l-60 20c-4.082032 1.359375-6.835938 5.183594-6.835938 9.488281v50.363282c-64.867188 4.664062-117.402344 53.195312-127.945312 116.488281l-.738282 4.417969c-12.167968 3.660156-21.316406 15.015624-21.316406 28.726562 0 13.5 8.964844 24.941406 21.25 28.695312l36.097656 228.242188c2.425782 14.519531 14.871094 25.0625 29.59375 25.0625h146.117188c14.722656 0 27.167968-10.542969 29.605468-25.148438l36.082032-228.140624c12.136718-3.683594 21.25-15.027344 21.25-28.710938 0-13.519531-8.996094-24.980469-21.316406-28.710938zm-148.679688-100.871093v46.472656c0 5.523437 4.476562 10 10 10 5.519531 0 10-4.476563 10-10v-46.464844c54.566406 4.582031 99.105469 45.539063 108.1875 99.574219h-236.378906c9.167968-54.632812 53.847656-95.125 108.191406-99.582031zm121.019531 205.582031h-222.039062l-7.277344-46h236.589844zm-18.980469 120h-184.082031l-15.816406-100h215.714844zm-18.980468 66h-146.121094c-4.90625 0-9.058594-3.515625-9.851562-8.269531l-5.96875-37.730469h177.757812l-5.953125 37.644531c-.804687 4.839844-4.957031 8.355469-9.863281 8.355469zm56.9375-252h-259.996094c-5.515625 0-10-4.484375-10-10 0-5.519531 4.476562-10 10-10h259.941406c.015625 0 .03125.003906.042969.003906h.03125c5.503906.007813 9.980469 4.488282 9.980469 9.996094 0 5.523438-4.476563 10-10 10zm0 0"/><path d="m210.5 366h-60c-5.523438 0-10 4.480469-10 10 0 5.523438 4.476562 10 10 10h60c5.519531 0 10-4.476562 10-10 0-5.519531-4.480469-10-10-10zm0 0"/></svg>