<svg height="512pt" viewBox="0 -46 512 512" width="512pt" xmlns="http://www.w3.org/2000/svg"><path d="m402 230c-5.519531 0-10 4.480469-10 10s4.480469 10 10 10 10-4.480469 10-10-4.480469-10-10-10zm0 0"/><path d="m359.5 234.476562c-35.984375 10.132813-65.621094 37.003907-79.28125 71.875-2.015625 5.144532.519531 10.945313 5.664062 12.960938 5.132813 2.007812 10.941407-.511719 12.957032-5.664062 11.390625-29.078126 36.09375-51.476563 66.082031-59.921876 5.316406-1.5 8.410156-7.023437 6.914063-12.335937-1.496094-5.316406-7.019532-8.414063-12.335938-6.914063zm0 0"/><path d="m394.21875 188.214844c8.894531-7.527344 14.605469-17.449219 16.78125-28.214844h31c16.542969 0 30-13.457031 30-30v-100c0-16.542969-13.457031-30-30-30h-100c-16.542969 0-30 13.457031-30 30v100c0 3.507812.609375 6.871094 1.71875 10h-11.71875c-16.574219 0-30 13.425781-30 30 0 7.679688 2.902344 14.6875 7.664062 20-4.761718 5.3125-7.664062 12.320312-7.664062 20v40c0 5.515625-4.484375 10-10 10h-32c-27.570312 0-50-22.429688-50-50v-95.382812c2.289062-1.324219 4.453125-2.871094 6.4375-4.617188h49.5625c16.542969 0 30-13.457031 30-30s-13.457031-30-30-30h-49.574219c-7.25-6.398438-16.644531-10-26.425781-10h-70c-5.523438 0-10 4.476562-10 10v60c0 5.523438 4.476562 10 10 10h27.671875l-23.640625 112.105469c-.722656 2.925781-1.164062 5.914062-1.347656 8.910156-4.171875-.664063-8.40625-1.015625-12.683594-1.015625-44.113281 0-80 35.886719-80 80v10c0 5.523438 4.476562 9.988281 10 9.988281h13.414062c-2.246093 6.355469-3.414062 13.097657-3.414062 20.011719 0 33.085938 26.914062 60 60 60s60-26.914062 60-60c0-6.914062-1.167969-13.644531-3.414062-20h15.046874c13.035157 12.753906 30.609376 20 48.96875 20h131.398438c0 33.085938 26.914062 60 60 60s60-26.914062 60-60h50c5.523438 0 10-4.476562 10-10 0-75.527344-49.511719-139.695312-117.78125-161.785156zm-52.21875-168.214844h100c5.515625 0 10 4.484375 10 10v10h-120v-10c0-5.515625 4.484375-10 10-10zm-10 110v-70h120v70c0 5.515625-4.484375 10-10 10-31.449219 0-68.003906 0-100 0-5.515625 0-10-4.484375-10-10zm-30 29.988281h88.296875c-4.035156 11.441407-15.050781 20.011719-28.296875 20.011719h-60c-5.515625 0-10-4.484375-10-10 0-5.601562 4.574219-10.011719 10-10.011719zm-56-79.988281c0 5.515625-4.484375 10-10 10h-37.28125c.839844-3.238281 1.28125-6.597656 1.28125-10s-.441406-6.761719-1.277344-10h37.277344c5.515625 0 10 4.484375 10 10zm-71.097656-13.316406c3.289062 3.667968 5.097656 8.394531 5.097656 13.316406 0 8.679688-5.574219 16.113281-13.34375 18.863281-2.121094.753907-4.363281 1.136719-6.65625 1.136719h-20v-40h20c5.6875 0 11.109375 2.429688 14.902344 6.683594zm-74.902344-6.683594h20v40h-20zm-20 200c5.445312 0 10.796875.726562 15.96875 2.152344 4.011719 10.394531 7.800781 12.785156 39.90625 57.847656h-115.875c0-33.085938 26.914062-60 60-60zm40 100c0 22.054688-17.945312 40-40 40s-40-17.945312-40-40c0-7.117188 1.839844-13.945312 5.351562-20h69.296876c3.511718 6.054688 5.351562 12.882812 5.351562 20zm321.054688-20c-.027344 0-.054688 0-.082032 0-20 0-95.734375 0-108.128906 0 4.71875-28.277344 29.289062-50 59.15625-50 29.84375 0 54.433594 21.691406 59.160156 50zm-49.054688 60c-22.054688 0-40-17.953125-40-40.011719h80c0 22.058594-17.945312 40.011719-40 40.011719zm79.359375-60c-4.890625-39.429688-38.464844-70-79.359375-70-40.855469 0-74.464844 30.53125-79.359375 70h-112.039063c-15.707031 0-30.824218-7.402344-40.476562-20.632812-41.792969-58.6875-44.109375-58.1875-46.570312-67.726563-3.050782-11.667969.007812-11.125 24.554687-131.640625h21.890625v90c0 38.597656 31.402344 70 70 70h32c16.542969 0 30-13.457031 30-30v-40c0-5.515625 4.484375-10 10-10h40c79.347656 0 144.503906 61.9375 149.671875 140zm0 0"/><path d="m412 90c0-5.523438-4.476562-10-10-10h-20c-5.523438 0-10 4.476562-10 10s4.476562 10 10 10h20c5.523438 0 10-4.476562 10-10zm0 0"/></svg>